<svg width="26" height="23" viewBox="0 0 26 23" fill="none" xmlns="http://www.w3.org/2000/svg">
<path d="M25.5375 21.2201L23.871 6.22006C23.8331 5.87597 23.6695 5.558 23.4115 5.32713C23.1536 5.09626 22.8195 4.96876 22.4733 4.96908H18.1339C18.017 3.68823 17.4255 2.49732 16.4757 1.63016C15.5258 0.763 14.286 0.282227 12.9999 0.282227C11.7137 0.282227 10.474 0.763 9.52408 1.63016C8.57419 2.49732 7.98276 3.68823 7.86588 4.96908H3.52643C3.18026 4.96876 2.84616 5.09626 2.58822 5.32713C2.33027 5.558 2.16665 5.87597 2.12874 6.22006L0.462212 21.2201C0.440375 21.4166 0.460243 21.6156 0.520518 21.8039C0.580792 21.9923 0.680118 22.1658 0.81201 22.3132C0.943902 22.4605 1.10539 22.5784 1.28594 22.6591C1.46648 22.7398 1.66202 22.7816 1.85979 22.7816H24.1398C24.3376 22.7816 24.5332 22.7399 24.7137 22.6592C24.8943 22.5785 25.0558 22.4606 25.1877 22.3132C25.3196 22.1658 25.4189 21.9923 25.4792 21.804C25.5395 21.6156 25.5594 21.4166 25.5375 21.2201ZM12.9999 1.21908C14.0371 1.22046 15.0376 1.60342 15.8107 2.29499C16.5838 2.98655 17.0754 3.93838 17.1919 4.96908H8.80784C8.92432 3.93838 9.41594 2.98655 10.189 2.29499C10.9621 1.60342 11.9626 1.22046 12.9999 1.21908ZM24.4892 21.688C24.4454 21.7374 24.3917 21.7769 24.3314 21.8038C24.2712 21.8307 24.2059 21.8445 24.1399 21.8441H1.85979C1.79387 21.8441 1.72869 21.8302 1.66851 21.8033C1.60833 21.7763 1.5545 21.737 1.51054 21.6879C1.46658 21.6388 1.43348 21.5809 1.41339 21.5182C1.3933 21.4554 1.38669 21.3891 1.39397 21.3235L3.06061 6.32354C3.07326 6.20886 3.12779 6.10289 3.21375 6.02594C3.29972 5.949 3.41106 5.90649 3.52643 5.90658H7.84362V9.18783C7.84362 9.31215 7.893 9.43138 7.98091 9.51929C8.06882 9.6072 8.18805 9.65658 8.31237 9.65658C8.43669 9.65658 8.55592 9.6072 8.64383 9.51929C8.73173 9.43138 8.78112 9.31215 8.78112 9.18783V5.90658H17.2186V9.18783C17.2186 9.31215 17.268 9.43138 17.3559 9.51929C17.4438 9.6072 17.563 9.65658 17.6874 9.65658C17.8117 9.65658 17.9309 9.6072 18.0188 9.51929C18.1067 9.43138 18.1561 9.31215 18.1561 9.18783V5.90658H22.4733C22.5887 5.90649 22.7 5.949 22.786 6.02594C22.8719 6.10289 22.9265 6.20886 22.9391 6.32354L24.6058 21.3235C24.6134 21.3891 24.607 21.4555 24.5869 21.5184C24.5667 21.5812 24.5334 21.639 24.4892 21.688Z" fill="white"/>
</svg>
