<svg width="16" height="16" viewBox="0 0 16 16" fill="none" xmlns="http://www.w3.org/2000/svg">
<path d="M14.9484 14.5509L11.7234 11.326C12.8149 10.1308 13.3952 8.55591 13.3402 6.93829C13.2852 5.32068 12.5993 3.78882 11.4292 2.67051C10.2592 1.5522 8.69786 0.936262 7.07941 0.954495C5.46096 0.972728 3.91392 1.62368 2.76933 2.76807C1.62474 3.91246 0.973515 5.45938 0.954996 7.07783C0.936476 8.69627 1.55214 10.2577 2.67024 11.428C3.78835 12.5982 5.32008 13.2844 6.93769 13.3397C8.5553 13.395 10.1303 12.8149 11.3257 11.7237L14.5507 14.9488C14.6034 15.0015 14.675 15.0311 14.7496 15.0311C14.8242 15.0311 14.8957 15.0014 14.9484 14.9487C15.0012 14.8959 15.0308 14.8244 15.0308 14.7498C15.0308 14.6752 15.0011 14.6037 14.9484 14.5509ZM1.53126 7.15602C1.53126 6.0435 1.86116 4.95597 2.47925 4.03094C3.09733 3.10591 3.97583 2.38494 5.00367 1.9592C6.0315 1.53346 7.1625 1.42206 8.25365 1.6391C9.34479 1.85615 10.3471 2.39188 11.1337 3.17855C11.9204 3.96522 12.4561 4.9675 12.6732 6.05864C12.8902 7.14978 12.7788 8.28078 12.3531 9.30862C11.9273 10.3365 11.2064 11.215 10.2813 11.833C9.35632 12.4511 8.26878 12.781 7.15626 12.781C5.66493 12.7793 4.23517 12.1862 3.18064 11.1316C2.12611 10.0771 1.53294 8.64735 1.53126 7.15602Z" fill="white"/>
</svg>
